<svg width="423" height="376" viewBox="0 0 423 376" fill="none" xmlns="http://www.w3.org/2000/svg">
<path d="M415.934 115.683C419.963 113.194 420.693 111.662 420.693 111.662C425.052 107.327 420.971 102.714 420.971 102.714C425.955 98.9532 420.189 93.156 420.189 93.156C421.387 89.0823 415.986 85.9313 415.986 85.9313C414.857 80.5693 406.486 81.9968 406.486 81.9968C406.486 81.9968 403.395 76.1126 394.52 88.4904C387.469 77.1223 379.306 66.7291 370.275 57.3457L399.279 32.6597L400.685 51.1133L409.074 30.8318L417.723 9.90616L396.778 18.4192L376.475 26.6884L393.322 28.0812L393.895 28.1334L365.343 52.4363C313.327 2.42029 234.826 -15.0583 163.932 14.2236C136.526 25.522 113.219 42.6003 94.8439 63.4562C111.725 46.7088 132.08 32.9034 155.404 23.2763C225.864 -5.81416 303.81 11.2467 355.825 60.5489L178.92 211.172C177.878 211.415 176.853 211.694 175.828 211.99C174.387 209.535 173.223 206.593 172.859 203.233C172.859 203.233 195.523 202.798 187.951 191.238C187.951 191.238 190.052 186.677 186.874 184.762L186.544 178.321L180.587 175.274C180.587 175.274 189.601 168.659 184.165 165.438C178.711 162.217 170.149 156.594 170.149 156.594C170.149 156.594 169.611 154 168.152 150.379C162.89 137.357 149.864 129.106 135.866 129.889C123.969 130.568 112.524 134.415 103.423 142.998C112.524 129.645 129.857 125.206 145.296 128.148L156.933 101.565C156.933 101.565 108.286 96.5333 81.6793 131.491C71.0678 145.4 68.3063 163.593 73.7945 180.218C78.1537 193.345 90.2762 205.653 110.561 215.924C115.164 218.309 120.635 220.468 127.165 222.226C127.165 222.226 128.936 224.246 130.864 227.049C111.187 236.658 92.1693 248.618 78.3969 265.993C81.0715 260.213 84.7534 254.92 89.1473 250.116C80.672 254.346 72.1619 258.367 63.565 262.232C63.1482 262.424 62.714 262.598 62.2972 262.807C55.1939 265.958 48.0385 269.039 40.831 272.016C46.8749 266.828 53.6655 262.667 60.7515 259.064C61.1509 258.855 61.5678 258.646 61.9846 258.437C63.3392 257.758 64.6765 257.114 66.0486 256.487C74.055 252.849 82.3914 249.82 91.0404 248.114C99.5505 239.496 110.353 232.654 121.659 227.867C120.444 228.006 119.714 228.093 119.714 228.093C96.6674 224.072 84.1455 244.162 84.1455 244.162L71.6235 250.673C68.3584 251.09 64.2597 252.135 60.0394 253.388C59.5879 253.528 59.1537 253.667 58.7021 253.789C48.4553 256.957 38.0695 261.222 38.0695 261.222C0.503656 281.312 0 313.432 0 313.432C20.5457 329.501 62.1061 314.947 69.6263 309.428C69.7305 309.341 69.8521 309.271 69.9736 309.202C64.3118 308.645 58.5458 308.105 53.0924 307.252C61.1162 303.857 70.3557 304.136 78.5184 306.834C78.5705 306.851 78.6226 306.886 78.6921 306.904C82.1656 306.695 85.8822 306.956 89.1647 307.356C89.8594 307.443 90.502 307.53 91.162 307.617C95.226 308.209 98.1784 308.923 98.1784 308.923C127.703 314.72 138.679 334.567 142.587 351.21C158.062 360.123 174.96 366.895 192.814 371.091C194.551 336.534 185.016 302.343 168.621 272.016C189.688 299.07 200.49 337.195 193.943 371.334C207.281 374.381 221.175 376 235.416 376C236.441 376 237.483 375.965 238.525 375.948C244.395 365.085 242.919 323.477 242.919 323.477C248.928 295.866 241.912 268.256 241.912 268.256C252.332 261.571 258.567 245.885 260.391 240.784C255.059 241.411 249.623 240.715 244.934 238.382C251.308 239.043 257.629 238.573 263.83 237.337C284.792 223.88 299.016 205.496 299.016 205.496C299.016 205.496 305.338 193.275 317.2 182.029C322.671 176.824 329.322 171.827 337.086 168.345C344.502 165.003 351.674 160.651 358.1 156.211C375.103 141.414 388.476 127.887 388.476 127.887C388.476 127.887 389.622 126.512 394.833 124.301C396.378 123.831 397.837 123.378 399.192 122.925C399.574 123.778 399.939 124.631 400.286 125.502C428.439 194.041 413.242 269.614 367.409 321.684C419.216 270.188 438.234 190.855 409.769 118.886C412.391 117.703 414.406 116.623 415.934 115.683ZM363.432 120.314C363.814 120.14 364.179 120.001 364.492 119.879C364.196 120.001 363.832 120.157 363.432 120.314ZM383.544 102.435C368.712 116.101 356.954 122.577 351.692 125.067C351.449 125.171 351.327 125.223 351.327 125.223V125.276C350.928 125.45 350.528 125.606 350.094 125.78C349.972 125.833 349.851 125.885 349.729 125.937C313.831 140.63 307.023 150.275 307.023 150.275C302.333 154.714 293.875 159.554 286.807 163.175C284.931 164.132 283.16 165.02 281.597 165.786C287.137 165.525 292.66 165.299 298.182 165.003C290.923 168.554 282.83 169.825 274.858 170.33C271.211 170.487 267.564 170.417 263.934 170.104C221.175 177.172 202.349 208.003 202.349 208.003C199.205 207.934 195.992 208.125 192.762 208.508L360.792 65.4235C370.553 75.3988 379.306 86.5754 386.791 98.8487C385.749 100.067 384.655 101.269 383.544 102.435Z" fill="black"/>
</svg>
