<svg width="585" height="122" viewBox="0 0 585 122" fill="none" xmlns="http://www.w3.org/2000/svg">
<path d="M196.316 50.822H207.611V77.7731C207.611 84.6169 207.611 100.841 185.063 100.841C162.514 100.841 162.525 85.4763 162.525 77.7523V50.822H173.366V76.5099C173.366 84.0371 173.696 90.8085 185.042 90.8085C196.389 90.8085 196.316 81.8732 196.316 76.5099V50.822Z" fill="white"/>
<path d="M240.341 61.7868L240.392 72.037C238.061 71.4469 235.307 71.1466 232.903 71.157C224.837 71.157 222.434 77.4521 222.434 82.8775V100.872H211.593V60.7617H222.434V66.6531H223.125C225.363 62.8118 227.88 60.7617 234.709 60.7617C237.091 60.8238 238.04 61.1655 240.341 61.7868Z" fill="white"/>
<path d="M301.848 80.4447C301.848 94.5052 291.667 100.873 279.516 100.873C267.365 100.873 257.205 94.3188 257.205 80.4447C257.205 66.5705 267.386 59.9958 279.516 59.9958C291.647 59.9958 301.848 66.5498 301.848 80.4447ZM291.172 80.4447C291.172 73.0313 286.417 69.9355 279.516 69.9355C272.616 69.9355 267.891 72.9174 267.891 80.4447C267.891 87.9719 272.647 90.9331 279.516 90.9331C286.386 90.9331 291.213 87.7131 291.213 80.4447H291.162H291.172Z" fill="white"/>
<path d="M346.946 80.8274V100.872H336.146V80.8274C336.146 77.7006 336.816 70.1009 326.419 70.1009C317.043 70.1009 315.65 76.1061 315.65 81.5419V100.872H304.809V60.7617H315.65V66.6531H316.176C318.745 63.1224 322.406 60.7617 329.565 60.7617C346.502 60.7617 346.956 74.9672 346.956 80.8274H346.946Z" fill="white"/>
<path d="M396.983 88.7893C396.983 98.905 389.773 100.893 377.364 100.893C368.205 100.893 361.933 99.1949 358.684 95.9127C357.663 94.8048 356.889 93.4795 356.415 92.0507C355.94 90.6115 355.765 89.0999 355.92 87.5882V86.6978H367.194V87.0602C367.194 90.5494 369.762 92.0921 377.075 92.0921C381.449 92.0921 385.678 91.533 385.678 88.8721C385.678 85.8177 381.738 85.2379 377.385 84.7306L375.683 84.5131C364.048 82.9601 356.838 80.3716 356.838 72.2438C356.838 66.5596 360.087 59.7778 375.611 59.7778C392.445 59.7778 395.9 67.2533 395.9 73.5277V73.8694H384.719V73.5277C384.719 70.3077 382.027 68.6925 375.611 68.6925C369.195 68.6925 368.205 70.9393 368.205 72.1817C368.205 73.9729 369.453 74.9876 376.498 76.0541L377.416 76.199C386.576 77.5761 396.983 79.1498 396.983 88.81V88.7893Z" fill="white"/>
<path d="M414.086 84.0477V84.845C414.086 90.7777 416.726 89.9287 427.217 89.3489V100.117C427.217 100.117 425.051 100.893 414.065 100.893C403.08 100.893 403.1 91.7924 403.1 85.8907V69.5524H397.695V60.2546H403.1V48.4927H414.086V60.2546H427.217V69.5524H414.086V84.0477Z" fill="white"/>
<path d="M472.025 60.0679V100.8H461.06V94.8257H460.554C457.955 98.4288 454.252 100.831 447.021 100.831C429.898 100.831 429.445 86.3148 429.445 80.4546V60.0782H440.358V80.4546C440.358 83.6228 439.687 91.3157 450.188 91.3157C459.636 91.3157 461.081 85.238 461.081 79.7194V60.0679H472.025Z" fill="white"/>
<path d="M521.289 48.3994V100.893H510.303V95.2091H509.798C507.054 98.7397 502.443 100.893 494.841 100.893C477.863 100.893 475.944 85.9838 475.944 80.517C475.944 74.5635 477.749 60.12 494.862 60.12C502.34 60.12 506.879 62.5428 509.674 66.1252H510.303V48.4098H521.289V48.3994ZM509.458 80.517C509.458 74.9984 507.508 69.6248 498.039 69.6248C487.528 69.6248 486.424 77.3177 486.424 80.517C486.424 83.7163 487.6 91.3782 498.008 91.3782C507.508 91.3782 509.458 86.6879 509.458 80.517Z" fill="white"/>
<path d="M244.126 100.893V60.3782H255.04V100.893H244.126Z" fill="white"/>
<path d="M249.84 39.4639L251.068 47.2396L258.814 48.4717L251.068 49.7038L249.84 57.4795L248.613 49.7038L240.866 48.4717L248.613 47.2396L249.84 39.4639Z" fill="white"/>
<path d="M525.652 100.893V60.3782H536.565V100.893H525.652Z" fill="white"/>
<path d="M531.366 39.4639L532.594 47.2396L540.34 48.4717L532.594 49.7038L531.366 57.4795L530.139 49.7038L522.392 48.4717L530.139 47.2396L531.366 39.4639Z" fill="white"/>
<path d="M584.406 80.1232C584.406 94.4219 574.111 100.883 561.857 100.883C549.603 100.883 539.278 94.2045 539.278 80.1232C539.278 66.042 549.572 59.3845 561.857 59.3845C574.142 59.3845 584.406 66.011 584.406 80.1232ZM573.606 80.1232C573.606 72.6167 568.799 69.4484 561.847 69.4484C554.895 69.4484 550.067 72.5028 550.067 80.1232C550.067 87.7437 554.874 90.7981 561.847 90.7981C568.82 90.7981 573.554 87.5055 573.554 80.1232H573.606Z" fill="white"/>
<path d="M134.643 37.5355C135.947 36.7278 136.183 36.2307 136.183 36.2307C137.594 34.8242 136.273 33.3273 136.273 33.3273C137.887 32.1072 136.02 30.2261 136.02 30.2261C136.408 28.9044 134.66 27.8819 134.66 27.8819C134.294 26.1422 131.584 26.6054 131.584 26.6054C131.584 26.6054 130.584 24.6961 127.711 28.7123C125.428 25.0237 122.786 21.6515 119.862 18.6068L129.251 10.597L129.707 16.5846L132.422 10.0039L135.222 3.21423L128.442 5.97643L121.869 8.65954L127.323 9.11144L127.508 9.12838L118.266 17.0139C101.428 0.785307 76.0159 -4.88595 53.0666 4.6151C44.195 8.28108 36.6502 13.8224 30.7021 20.5895C36.1667 15.1555 42.7558 10.6761 50.3062 7.55241C73.1149 -1.88651 98.3467 3.64918 115.185 19.6462L57.9185 68.5184C57.5812 68.5975 57.2495 68.6879 56.9177 68.7839C56.4511 67.9875 56.0744 67.0328 55.9564 65.9426C55.9564 65.9426 63.2932 65.8014 60.8419 62.0507C60.8419 62.0507 61.5222 60.5708 60.4934 59.9494L60.3866 57.8594L58.4582 56.8709C58.4582 56.8709 61.376 54.7244 59.6163 53.6794C57.851 52.6344 55.0793 50.8099 55.0793 50.8099C55.0793 50.8099 54.905 49.9682 54.4328 48.7933C52.7293 44.5681 48.5128 41.8906 43.9814 42.1448C40.1303 42.3651 36.4253 43.6135 33.4794 46.3983C36.4253 42.0657 42.0362 40.6253 47.0342 41.58L50.8009 32.9544C50.8009 32.9544 35.0536 31.322 26.4406 42.6645C23.0055 47.1778 22.1116 53.0806 23.8881 58.4751C25.2993 62.7342 29.2235 66.7278 35.79 70.0605C37.2799 70.8344 39.0508 71.5348 41.1647 72.1053C41.1647 72.1053 41.7382 72.7606 42.3622 73.67C35.9924 76.7881 29.8363 80.6687 25.378 86.3061C26.2438 84.4307 27.4357 82.7135 28.858 81.1545C26.1145 82.5271 23.3597 83.832 20.5767 85.086C20.4418 85.1481 20.3013 85.2046 20.1663 85.2724C17.8669 86.2948 15.5506 87.2946 13.2175 88.2605C15.1739 86.5772 17.3722 85.2272 19.666 84.0579C19.7953 83.9901 19.9302 83.9223 20.0651 83.8546C20.5037 83.6343 20.9366 83.4253 21.3807 83.2219C23.9725 82.0413 26.6711 81.0585 29.4708 80.5049C32.2257 77.7088 35.7226 75.4889 39.3825 73.9355C38.989 73.9807 38.7529 74.0089 38.7529 74.0089C31.2924 72.7041 27.2389 79.2227 27.2389 79.2227L23.1854 81.3353C22.1284 81.4708 20.8016 81.8098 19.4355 82.2165C19.2893 82.2616 19.1487 82.3068 19.0026 82.3464C15.6855 83.3744 12.3236 84.7584 12.3236 84.7584C0.163039 91.2769 0 101.699 0 101.699C6.6509 106.912 20.1045 102.19 22.5388 100.4C22.5726 100.371 22.6119 100.349 22.6513 100.326C20.8185 100.145 18.952 99.9702 17.1866 99.6934C19.784 98.5919 22.775 98.6823 25.4173 99.5579C25.4342 99.5635 25.4511 99.5748 25.4736 99.5804C26.598 99.5127 27.8011 99.5974 28.8637 99.7273C29.0885 99.7556 29.2966 99.7838 29.5102 99.812C30.8258 100.004 31.7815 100.236 31.7815 100.236C41.339 102.117 44.8922 108.556 46.1571 113.956C51.1664 116.848 56.6366 119.046 62.4161 120.407C62.9783 109.194 59.8918 98.1005 54.5846 88.2605C61.4041 97.0386 64.9011 109.409 62.7816 120.486C67.0993 121.475 71.5969 122 76.207 122C76.5387 122 76.8761 121.989 77.2134 121.983C79.1136 118.458 78.6358 104.958 78.6358 104.958C80.581 95.9992 78.3097 87.0404 78.3097 87.0404C81.6829 84.8713 83.7012 79.7819 84.2916 78.1268C82.5656 78.3302 80.8059 78.1042 79.2879 77.3473C81.3512 77.562 83.3977 77.4094 85.4047 77.0084C92.1906 72.642 96.795 66.677 96.795 66.677C96.795 66.677 98.8414 62.7116 102.681 59.0626C104.452 57.3736 106.606 55.7525 109.119 54.6227C111.519 53.5382 113.841 52.126 115.921 50.6856C121.425 45.8842 125.754 41.4952 125.754 41.4952C125.754 41.4952 126.125 41.049 127.812 40.3316C128.312 40.1791 128.785 40.0322 129.223 39.8854C129.347 40.1621 129.465 40.4389 129.577 40.7214C138.691 62.9602 133.771 87.481 118.935 104.376C135.705 87.6674 141.861 61.9264 132.647 38.5749C133.496 38.1908 134.148 37.8405 134.643 37.5355ZM117.647 39.0381C117.771 38.9816 117.889 38.9364 117.99 38.8968C117.895 38.9364 117.777 38.9872 117.647 39.0381ZM124.158 33.2369C119.356 37.6711 115.55 39.7724 113.847 40.5801C113.768 40.614 113.729 40.631 113.729 40.631V40.6479C113.599 40.7044 113.47 40.7553 113.329 40.8117C113.29 40.8287 113.251 40.8456 113.211 40.8626C101.591 45.6301 99.3868 48.7594 99.3868 48.7594C97.8688 50.1998 95.1309 51.7702 92.8427 52.9451C92.2355 53.2557 91.6621 53.5438 91.1561 53.7924C92.9495 53.7076 94.7374 53.6342 96.5252 53.5382C94.1751 54.6905 91.5553 55.1029 88.9747 55.2667C87.7941 55.3175 86.6135 55.2949 85.4385 55.1932C71.5969 57.4866 65.5026 67.4904 65.5026 67.4904C64.485 67.4678 63.445 67.5299 62.3993 67.6542L116.793 21.2278C119.952 24.4645 122.786 28.0909 125.209 32.0733C124.872 32.4687 124.517 32.8584 124.158 33.2369Z" fill="white"/>
</svg>
